<?xml version="1.0" encoding="UTF-8"?>
<svg xmlns="http://www.w3.org/2000/svg" id="Layer_1" data-name="Layer 1" viewBox="0 0 24 24">
  <path d="M23,18.908v1.592c0,.828-.671,1.5-1.5,1.5-.176,0-.343-.036-.5-.092v.592c0,.828-.671,1.5-1.5,1.5s-1.5-.672-1.5-1.5v-3.5H6v3.5c0,.828-.671,1.5-1.5,1.5s-1.5-.672-1.5-1.5v-.592c-.157,.056-.324,.092-.5,.092-.829,0-1.5-.672-1.5-1.5v-1.592c-.581-.207-1-.756-1-1.408s.419-1.201,1-1.408v-1.592c0-.828,.671-1.5,1.5-1.5,.176,0,.343,.036,.5,.092v-.592c0-.828,.671-1.5,1.5-1.5s1.5,.672,1.5,1.5v3.5h12v-3.5c0-.828,.671-1.5,1.5-1.5s1.5,.672,1.5,1.5v.592c.157-.056,.324-.092,.5-.092,.829,0,1.5,.672,1.5,1.5v1.592c.581,.207,1,.756,1,1.408s-.419,1.201-1,1.408ZM8.423,8.988h3.077l-1.463,3.897c-.271,.949,.996,1.546,1.556,.734l4.754-7.225c.399-.602-.032-1.406-.754-1.406h-3.093l1.275-3.629c.252-.655-.232-1.359-.933-1.359h-1.894c-.426,0-.806,.27-.945,.674l-2.462,7.124c-.179,.592,.264,1.19,.883,1.19Z"/>
</svg>
