<?xml version="1.0" encoding="UTF-8"?>
<svg xmlns="http://www.w3.org/2000/svg" id="Layer_1" data-name="Layer 1" viewBox="0 0 24 24">
  <path d="m23.411,15.866c-.369-.427-.867-.707-1.411-.814v-.552c0-2.481-2.019-4.5-4.5-4.5s-4.5,2.019-4.5,4.5v.552c-.544.107-1.042.387-1.411.814-.475.55-.687,1.278-.582,1.997l.524,3.573c.215,1.462,1.491,2.564,2.968,2.564h6c1.477,0,2.753-1.102,2.968-2.564l.524-3.573c.105-.719-.106-1.447-.582-1.997Zm-5.911-3.866c1.378,0,2.5,1.122,2.5,2.5v.5h-5v-.5c0-1.378,1.122-2.5,2.5-2.5Zm3.456-3h3.044v4.754c-.016-.011-.03-.024-.047-.035-.239-1.987-1.379-3.699-2.997-4.719Zm-10.88,5.558c-.855.99-1.237,2.3-1.047,3.595l.525,3.574c.014.094.047.181.066.273h-4.619c-2.757,0-5-2.243-5-5v-8h14.044c-1.618,1.02-2.759,2.732-2.997,4.719-.362.231-.689.513-.971.839Zm13.924-9.558c0-2.757-2.243-5-5-5H5C2.243,0,0,2.243,0,5v2h24v-2Zm-19.5,0c-.828,0-1.5-.672-1.5-1.5s.672-1.5,1.5-1.5,1.5.672,1.5,1.5-.672,1.5-1.5,1.5Zm4,0c-.828,0-1.5-.672-1.5-1.5s.672-1.5,1.5-1.5,1.5.672,1.5,1.5-.672,1.5-1.5,1.5Z"/>
</svg>
